<svg width="100" height="100" viewBox="0 0 100 100" fill="none" xmlns="http://www.w3.org/2000/svg">
<g clip-path="url(#clip0_5_11)">
<rect width="100" height="100" rx="50" fill="#F0DBB9"/>
<path d="M23.391 77.6838C23.391 81.0152 31.3831 85.6791 41.3733 84.3465L40.0414 101.003L66.0158 107L75.3399 93.0082C74.2299 91.6756 71.8767 87.8112 71.3438 83.014C70.6778 77.0175 72.6759 67.6896 73.3419 65.0245C74.0079 62.3594 78.67 56.3629 79.336 54.364C80.002 52.3652 82 45.0361 82 40.3722C82 35.7082 78.67 21.0501 72.0099 19.7176C65.3498 18.385 54.6936 15.7199 43.3714 17.7187C32.0493 19.7176 26.0552 30.378 25.3892 32.3769C24.7232 34.3757 21.393 47.7013 20.727 49.7001C20.061 51.6989 15.3989 60.3605 16.0649 61.6931C16.5977 62.7591 21.171 62.1373 23.391 61.6931V77.6838Z" fill="#D1B384"/>
</g>
<defs>
<clipPath id="clip0_5_11">
<rect width="100" height="100" rx="50" fill="white"/>
</clipPath>
</defs>
</svg>
