<svg width="100" height="100" viewBox="0 0 100 100" fill="none" xmlns="http://www.w3.org/2000/svg">
<g clip-path="url(#clip0_5_12)">
<rect width="100" height="100" rx="50" fill="#DB967D"/>
<path fill-rule="evenodd" clip-rule="evenodd" d="M33.4649 13.2957C32.0418 14.063 31.9449 14.6823 31.9401 23.038L31.9355 30.8532L29.879 31.5708C25.1876 33.2084 21.4098 35.5556 19.8731 37.788C19.0313 39.0106 18.9875 39.2349 18.9893 42.317C18.9911 45.2762 19.0691 45.7202 19.8825 47.3982C21.847 51.4501 26.5613 54.5224 33.0262 55.9641C50.4582 59.8518 73.9876 55.2311 82.3947 46.2693C84.2254 44.3177 84.825 43.2473 85.2786 41.1204C86.3775 35.9666 82.2442 32.2833 72.5652 29.7914L71.3045 29.4669L71.1823 24.0302C71.0998 20.3605 70.9319 18.3604 70.6653 17.8753C70.4481 17.4803 69.4936 16.7912 68.5446 16.3438L66.819 15.5308L59.9233 15.6261C52.3867 15.7306 50.1374 15.5198 43.8446 14.1185C39.0008 13.0396 34.5885 12.6899 33.4649 13.2957ZM34.3149 39.1249C36.8061 40.1429 41.7976 41.5684 45.1882 42.2297C50.8183 43.3279 58.2712 42.7025 67.3674 40.3687C71.122 39.4056 71.2637 39.3912 71.1756 39.9841C71.115 40.3935 70.2153 41.1005 68.4946 42.0912C62.9751 45.2694 57.9662 46.6214 51.689 46.6281C45.8158 46.6343 40.9354 45.4625 36.2007 42.9099C32.8074 41.0802 31.9355 40.3347 31.9355 39.2622C31.9355 38.7652 32.0488 38.3585 32.1877 38.3585C32.3264 38.3585 33.2836 38.7033 34.3149 39.1249ZM10 51.0968C10 51.1927 12.812 55.6868 16.2486 61.0836L22.4974 70.8961L20.9519 72.7561C18.8083 75.3365 18.3221 76.4207 16.7954 82.0246C16.0609 84.7212 15.3873 87.1687 15.2989 87.4638C15.1463 87.9724 10.6517 103.5 48.5394 103.5C70.5014 103.5 95 87.9464 95 87.8805C95 87.8149 94.7873 86.6342 94.5275 85.2565C93.6077 80.3791 91.3529 74.9946 88.7999 71.5785C86.9963 69.1651 84.7394 67.0694 84.2531 67.3565C84.0478 67.4779 81.7129 69.0845 79.0642 70.9273C76.4155 72.7699 74.2058 74.2282 74.154 74.1675C74.1022 74.1071 78.0311 69.386 82.8852 63.6763C88.5071 57.0636 91.5832 53.2157 91.3593 53.0766C91.1659 52.9565 87.1876 52.772 82.519 52.6672L74.03 52.476L72.2045 53.2222C70.5355 53.9043 65.1927 55.5379 63.2892 55.9482C62.6156 56.0931 62.4447 56.3741 62.1102 57.8866C60.5375 64.9936 54.2868 68.7238 48.5394 65.9846C45.7838 64.6716 43.5589 61.8724 42.9639 58.9708C42.7609 57.9813 42.5986 57.8039 41.825 57.7267C41.0613 57.6504 40.8321 57.806 40.3307 58.7431C39.4789 60.3353 36.8423 62.9939 35.3623 63.7535C33.7531 64.579 31.5144 64.6115 30.2367 63.828C28.8453 62.9746 27.4698 60.6583 26.447 57.4469C25.9468 55.8768 25.5376 54.3915 25.5376 54.1467C25.5376 53.9018 25.229 53.5369 24.8521 53.3359C24.475 53.1348 23.5644 52.5094 22.828 51.9462L21.4893 50.9221H15.7447C12.585 50.9221 10 51.0006 10 51.0968Z" fill="#924123"/>
</g>
<defs>
<clipPath id="clip0_5_12">
<rect width="100" height="100" rx="50" fill="white"/>
</clipPath>
</defs>
</svg>
